<?xml version="1.0" standalone="no"?>
<!DOCTYPE svg PUBLIC "-//W3C//DTD SVG 20010904//EN"
 "http://www.w3.org/TR/2001/REC-SVG-20010904/DTD/svg10.dtd">
<svg version="1.0" xmlns="http://www.w3.org/2000/svg"
 width="300.000000pt" height="67.000000pt" viewBox="0 0 300.000000 67.000000"
 preserveAspectRatio="xMidYMid meet">
<metadata>
Created by potrace 1.10, written by Peter Selinger 2001-2011
</metadata>
<g transform="translate(0.000000,67.000000) scale(0.100000,-0.100000)"
fill="#000000" stroke="none">
<path d="M430 440 c0 -223 1 -230 20 -230 19 0 20 7 20 230 0 223 -1 230 -20
230 -19 0 -20 -7 -20 -230z"/>
<path d="M270 389 c0 -188 2 -210 16 -205 9 3 18 6 20 6 2 0 4 92 4 205 0 198
-1 205 -20 205 -19 0 -20 -7 -20 -211z"/>
<path d="M678 396 c3 -193 4 -204 22 -209 19 -5 20 1 20 204 l0 209 -22 0 -23
0 3 -204z"/>
<path d="M518 375 c3 -156 4 -165 22 -165 19 0 20 8 20 165 0 164 0 165 -22
165 l-23 0 3 -165z"/>
<path d="M1050 479 c-83 -17 -82 -92 1 -135 53 -26 58 -34 33 -55 -12 -10 -25
-10 -55 -2 -37 10 -39 9 -39 -13 0 -46 116 -44 147 3 24 36 8 71 -46 103 -25
14 -46 31 -48 37 -7 21 35 36 68 24 27 -9 29 -8 29 13 0 27 -33 36 -90 25z"/>
<path d="M2352 358 c2 -78 7 -113 16 -116 9 -3 12 24 12 112 0 98 -2 116 -15
116 -13 0 -15 -17 -13 -112z"/>
<path d="M2440 355 c0 -70 4 -115 10 -115 6 0 10 18 10 40 0 22 4 40 8 40 5 0
23 -18 41 -40 17 -22 39 -40 49 -40 11 0 2 14 -28 45 l-44 45 39 40 c28 28 34
40 22 40 -9 0 -29 -16 -44 -35 -15 -19 -31 -35 -35 -35 -5 0 -8 29 -8 65 0 37
-4 65 -10 65 -6 0 -10 -45 -10 -115z"/>
i
<path d="M350 329 c0 -126 1 -130 20 -127 20 3 21 10 23 131 2 126 2 127 -20
127 -23 0 -23 -2 -23 -131z"/>
<path d="M590 336 l0 -124 25 -4 25 -5 0 128 0 129 -25 0 -25 0 0 -124z"/>
<path d="M1240 413 c-36 -14 -60 -47 -60 -84 0 -54 27 -82 81 -83 38 -1 44 2
47 20 3 18 -1 21 -23 17 -33 -7 -55 12 -55 47 0 35 22 54 55 47 22 -4 26 -1
23 17 -3 22 -37 31 -68 19z"/>
<path d="M1380 411 c-14 -4 -26 -14 -28 -23 -3 -13 5 -15 42 -11 38 5 46 3 46
-11 0 -11 -9 -16 -28 -16 -41 0 -72 -26 -72 -60 0 -45 52 -66 84 -34 9 8 16
11 16 5 0 -6 11 -11 25 -11 24 0 25 3 25 60 0 51 -4 65 -25 85 -25 25 -41 28
-85 16z m63 -87 c13 -13 -14 -44 -38 -44 -32 0 -33 27 -2 40 28 11 32 11 40 4z"/>
<path d="M1602 404 c-12 -8 -22 -10 -22 -5 0 6 -10 11 -22 11 -23 0 -23 -2
-24 -120 -1 -119 0 -120 23 -120 21 0 23 5 23 45 0 42 11 58 25 35 10 -16 40
-11 69 11 22 17 26 28 26 70 0 76 -45 110 -98 73z m52 -46 c14 -23 -4 -72 -27
-76 -26 -5 -47 16 -47 47 0 49 49 68 74 29z"/>
<path d="M1783 410 c-29 -12 -43 -40 -43 -89 0 -31 6 -44 26 -60 39 -31 114
-25 114 8 0 14 -7 16 -35 13 -34 -4 -65 10 -65 29 0 5 25 9 55 9 54 0 55 0 55
29 0 20 -9 36 -26 50 -29 23 -46 25 -81 11z m65 -52 c3 -15 -4 -18 -32 -18
-39 0 -39 0 -30 25 9 22 58 16 62 -7z"/>
<path d="M2203 410 c-13 -5 -23 -14 -23 -21 0 -7 7 -8 18 -4 38 16 50 16 66 0
24 -25 20 -31 -31 -41 -52 -10 -69 -29 -59 -67 8 -32 44 -44 76 -27 18 10 24
9 31 -1 14 -23 22 16 17 83 -6 80 -33 103 -95 78z m77 -95 c0 -18 -35 -55 -53
-55 -17 0 -37 20 -37 37 0 15 34 31 68 32 13 1 22 -5 22 -14z"/>
<path d="M2618 390 c-27 -27 -30 -36 -25 -73 9 -67 72 -100 123 -63 24 18 13
31 -14 17 -28 -15 -48 -14 -66 5 -31 30 -19 43 42 46 57 3 57 3 54 33 -4 34
-34 65 -64 65 -11 0 -33 -14 -50 -30z m73 0 c10 -6 19 -20 19 -30 0 -17 -7
-20 -45 -20 -51 0 -60 18 -23 44 27 19 24 19 49 6z"/>
<path d="M2824 403 c-13 -13 -19 -14 -22 -5 -2 6 -8 12 -13 12 -6 0 -9 -34 -7
-80 3 -88 23 -108 23 -24 0 55 16 84 46 84 11 0 19 7 19 15 0 20 -25 19 -46
-2z"/>
<path d="M2913 405 c-41 -29 -25 -65 40 -93 15 -6 27 -16 27 -21 0 -19 -30
-33 -60 -26 -36 8 -42 -12 -6 -21 33 -8 64 3 76 27 14 25 -3 57 -35 65 -13 3
-30 13 -37 21 -10 12 -9 18 7 30 12 8 30 11 43 8 17 -4 23 -2 20 7 -7 19 -50
21 -75 3z"/>
<path d="M1937 333 c36 -115 40 -116 74 -5 7 23 15 42 19 42 4 0 13 -25 20
-55 13 -53 33 -85 43 -68 12 22 47 156 42 161 -10 10 -21 -15 -34 -74 -7 -30
-16 -54 -20 -54 -4 0 -14 28 -22 62 -8 34 -19 63 -26 65 -7 3 -19 -19 -29 -54
-10 -32 -21 -62 -25 -66 -6 -8 -39 86 -39 112 0 6 -6 11 -14 11 -11 0 -9 -16
11 -77z"/>
<path d="M373 149 c-135 -12 -268 -61 -353 -129 -17 -14 0 -9 50 14 260 119
593 123 844 12 72 -32 84 -27 22 9 -128 75 -354 113 -563 94z"/>
<path d="M2260 115 c0 -43 1 -45 28 -44 16 1 20 3 10 6 -13 3 -18 15 -18 44 0
21 -4 39 -10 39 -5 0 -10 -20 -10 -45z"/>
<path d="M2870 145 c0 -8 -9 -15 -19 -15 -20 0 -37 -32 -26 -50 3 -5 17 -10
30 -10 20 0 23 6 27 45 2 25 0 45 -4 45 -5 0 -8 -7 -8 -15z m0 -45 c0 -11 -7
-20 -15 -20 -8 0 -15 9 -15 20 0 11 7 20 15 20 8 0 15 -9 15 -20z"/>
<path d="M2647 143 c-6 -11 4 -73 12 -73 7 0 6 69 -2 76 -3 3 -7 2 -10 -3z"/>
<path d="M2170 105 c0 -20 5 -25 25 -25 20 0 25 5 25 25 0 20 -5 25 -25 25
-20 0 -25 -5 -25 -25z"/>
<path d="M2431 98 c2 -31 2 -31 6 -5 2 15 10 27 18 27 8 0 16 -12 18 -27 l4
-28 2 28 c0 16 7 27 15 27 8 0 17 -12 19 -27 4 -26 4 -26 6 5 1 32 0 32 -44
32 -44 0 -45 0 -44 -32z"/>
<path d="M2724 115 c-10 -24 4 -45 28 -44 21 1 22 1 3 7 -22 8 -27 33 -7 40 6
2 12 -4 12 -13 0 -9 4 -14 10 -10 15 9 0 35 -21 35 -11 0 -22 -7 -25 -15z"/>
<path d="M2930 105 c0 -18 5 -25 20 -25 15 0 20 7 20 25 0 18 -5 25 -20 25
-15 0 -20 -7 -20 -25z"/>
</g>
</svg>
